<?xml version="1.0" ?><svg viewBox="0 0 291.03 494.75" xmlns="http://www.w3.org/2000/svg"><defs><style>.cls-1{fill:#173156;}</style></defs><title/><g data-name="Capa 2" id="Capa_2"><g id="Outline"><g id="IceCream2"><path class="cls-1" d="M288.91,262.34a8.5,8.5,0,0,0-6.38-2.88H274.8a37.47,37.47,0,0,0,5-18.64,37.91,37.91,0,0,0-1-8.48,37.39,37.39,0,0,0-16.72-23.44c-1.07-.66-2.16-1.27-3.27-1.82.76-1,1.47-2,2.14-3.08a37.61,37.61,0,0,0-12-51.83c-1.08-.67-2.18-1.29-3.3-1.84A37.59,37.59,0,0,0,212.36,89.9c5.66-31.15,1.14-54.81-13.52-70.43C174.28-6.68,131.34,1,129.52,1.29a8.51,8.51,0,0,0,.8,16.83c2.19,1.75,6.69,10.77,6.69,22.73,0,11.12-10.61,23-26.4,23a66.44,66.44,0,0,0-66.33,64.51l-5.1,1.18a37.6,37.6,0,0,0-13.52,67.16A37.63,37.63,0,0,0,28,256a38.43,38.43,0,0,0-3.61,3.5H8.5A8.49,8.49,0,0,0,.07,269l11,85.24a8.51,8.51,0,0,0,8.43,7.42H31.77L52.53,487.64a8.49,8.49,0,0,0,8.38,7.11H230.12a8.49,8.49,0,0,0,8.38-7.11L259.25,361.7h12.32a8.51,8.51,0,0,0,8.43-7.42L291,269A8.53,8.53,0,0,0,288.91,262.34ZM172.3,344.7l68.24-68.24h32.32l-2,15.68L218.28,344.7ZM68.08,477.47,61.57,438l76.29-76.28h46Zm194.2-241.3A20.6,20.6,0,0,1,251,259.46H69.84l158.23-36.55,9.48-2.19h0a20.62,20.62,0,0,1,24.73,15.45Zm-13.11-56.74a20.6,20.6,0,0,1-15.45,24.72L54.61,245.52a20.61,20.61,0,1,1-9.28-40.17l10.76-2.49h0L224.45,164h0a20.6,20.6,0,0,1,24.72,15.45ZM110.61,80.87a44.26,44.26,0,0,0,31.25-12.49C149.58,60.82,154,50.79,154,40.85a62.4,62.4,0,0,0-4.62-23.78c1.18.05,2.41.12,3.66.22,10.08.82,24.06,3.88,33.39,13.82,11.75,12.51,14.36,33.58,7.79,62.64L61.59,124.38A49.44,49.44,0,0,1,110.61,80.87ZM30.16,155.29A20.5,20.5,0,0,1,43,146.12l168.34-38.87a20.75,20.75,0,0,1,4.68-.54,20.62,20.62,0,0,1,4.6,40.71L52.28,186.3a20.62,20.62,0,0,1-22.12-31Zm-12,121.17H230.64L162.4,344.7H26.94ZM128,361.7,60.17,429.48,49,361.7ZM222.9,477.75H77.69l116.05-116H242ZM252,344.7H228.18l41.21-41.2-5.3,41.2Z"/><path class="cls-1" d="M167.35,28.39a3.5,3.5,0,0,0-2.6,6.5c4.39,1.76,8.12,8,10,16.79a70.51,70.51,0,0,1-1.19,31.76A3.51,3.51,0,0,0,176,87.73a3.61,3.61,0,0,0,.91.12,3.51,3.51,0,0,0,3.38-2.6C187,60.38,180.9,33.81,167.35,28.39Z"/><path class="cls-1" d="M52.18,179.11a18.93,18.93,0,0,0,4.2-.48,3.5,3.5,0,1,0-1.58-6.82,11.66,11.66,0,0,1-14-8.73A3.5,3.5,0,1,0,34,164.66,18.68,18.68,0,0,0,52.18,179.11Z"/><path class="cls-1" d="M57,231.5a11.67,11.67,0,0,1-14-8.73,3.5,3.5,0,0,0-6.82,1.58,18.63,18.63,0,0,0,22.36,14A3.5,3.5,0,0,0,57,231.5Z"/></g></g></g></svg>